# xmcd CD database file
#
# Track frame offsets:
#	150
#	20646
#	40306
#	60634
#	79497
#	101136
#	115851
#	137088
#	153596
#	167318
#	180865
#	195116
#	213391
#	231830
#	259760
#	274624
#
# Disc length: 3870 seconds
#
# Revision: 0
# Processed by: cddbd v1.5.2PL0 Copyright (c) Steve Scherf et al.
# Submitted via: CDex 1.51
#
DISCID=d30f1c10
DTITLE=Sue Foley - Various Sue Foley
DYEAR=2007
DGENRE=Blues
TTITLE0=Two Trains
TTITLE1=Love Comin' Down
TTITLE2=Mediterranean Breakfast
TTITLE3=To Be Next To You
TTITLE4=Empty Cup
TTITLE5=Deep Freeze
TTITLE6=Oh Baby (we Got A Good Thing)
TTITLE7=Make It Real
TTITLE8=Change Your Mind
TTITLE9=Found My Love
TTITLE10=Do It Again
TTITLE11=Little Things
TTITLE12=New Used Car
TTITLE13=Absolution
TTITLE14=Long Tomorrow
TTITLE15=You're Barkin' Up the Wrong Tree
EXTD=YEAR: 2007
EXTT0=
EXTT1=
EXTT2=
EXTT3=
EXTT4=
EXTT5=
EXTT6=
EXTT7=
EXTT8=
EXTT9=
EXTT10=
EXTT11=
EXTT12=
EXTT13=
EXTT14=
EXTT15=
PLAYORDER=
